<svg xmlns="http://www.w3.org/2000/svg" xmlns:xlink="http://www.w3.org/1999/xlink" width="224" zoomAndPan="magnify" viewBox="0 0 168 112.499997" height="150" preserveAspectRatio="xMidYMid meet" version="1.0"><defs><g/><clipPath id="c089ca7f01"><rect x="0" width="144" y="0" height="40"/></clipPath></defs><g transform="matrix(1, 0, 0, 1, 14, 17)"><g clip-path="url(#c089ca7f01)"><g fill="#ffffff" fill-opacity="1"><g transform="translate(2.03105, 28.19705)"><g><path d="M 11.71875 0 L 7.96875 0 L -0.625 -16.015625 L 5.75 -16.015625 L 9.65625 -7.375 L 13.5 -16.015625 L 17.296875 -16.015625 L 21.140625 -7.375 L 25.046875 -16.015625 L 31.421875 -16.015625 L 22.828125 0 L 19.078125 0 L 15.40625 -8.28125 Z M 11.71875 0 "/></g></g></g><g fill="#ffffff" fill-opacity="1"><g transform="translate(32.823283, 28.19705)"><g><path d="M 2.40625 -24.953125 C 3.050781 -25.597656 3.820312 -25.921875 4.71875 -25.921875 C 5.613281 -25.921875 6.382812 -25.597656 7.03125 -24.953125 C 7.675781 -24.304688 8 -23.535156 8 -22.640625 C 8 -21.742188 7.675781 -20.972656 7.03125 -20.328125 C 6.382812 -19.679688 5.613281 -19.359375 4.71875 -19.359375 C 3.820312 -19.359375 3.050781 -19.679688 2.40625 -20.328125 C 1.757812 -20.972656 1.4375 -21.742188 1.4375 -22.640625 C 1.4375 -23.535156 1.757812 -24.304688 2.40625 -24.953125 Z M 1.875 -16.015625 L 1.875 0 L 7.40625 0 L 7.40625 -16.015625 Z M 1.875 -16.015625 "/></g></g></g><g fill="#ffffff" fill-opacity="1"><g transform="translate(42.254579, 28.19705)"><g><path d="M 1.875 0 L 1.875 -26.859375 L 7.40625 -26.859375 L 7.40625 0 Z M 1.875 0 "/></g></g></g><g fill="#ffffff" fill-opacity="1"><g transform="translate(51.529723, 28.19705)"><g><path d="M 2.96875 -1.984375 C 1.46875 -3.617188 0.71875 -5.625 0.71875 -8 C 0.71875 -10.375 1.46875 -12.378906 2.96875 -14.015625 C 4.46875 -15.660156 6.375 -16.484375 8.6875 -16.484375 C 10.8125 -16.484375 12.5625 -15.820312 13.9375 -14.5 L 13.9375 -26.859375 L 19.453125 -26.859375 L 19.453125 0 L 14 0 L 14 -1.8125 L 13.9375 -1.8125 C 12.5625 -0.289062 10.8125 0.46875 8.6875 0.46875 C 6.375 0.46875 4.46875 -0.347656 2.96875 -1.984375 Z M 7.671875 -10.71875 C 6.953125 -10.007812 6.59375 -9.101562 6.59375 -8 C 6.59375 -6.894531 6.9375 -5.992188 7.625 -5.296875 C 8.3125 -4.597656 9.21875 -4.25 10.34375 -4.25 C 11.425781 -4.25 12.316406 -4.601562 13.015625 -5.3125 C 13.710938 -6.019531 14.0625 -6.914062 14.0625 -8 C 14.0625 -9.101562 13.703125 -10.007812 12.984375 -10.71875 C 12.265625 -11.425781 11.382812 -11.78125 10.34375 -11.78125 C 9.28125 -11.78125 8.390625 -11.425781 7.671875 -10.71875 Z M 7.671875 -10.71875 "/></g></g></g><g fill="#ffffff" fill-opacity="1"><g transform="translate(72.859435, 28.19705)"><g><path d="M 18.359375 -14.015625 C 19.859375 -12.378906 20.609375 -10.375 20.609375 -8 C 20.609375 -5.625 19.859375 -3.617188 18.359375 -1.984375 C 16.859375 -0.347656 14.957031 0.46875 12.65625 0.46875 C 10.53125 0.46875 8.78125 -0.289062 7.40625 -1.8125 L 7.34375 -1.8125 L 7.34375 0 L 1.875 0 L 1.875 -26.859375 L 7.40625 -26.859375 L 7.40625 -14.5 C 8.78125 -15.820312 10.53125 -16.484375 12.65625 -16.484375 C 14.957031 -16.484375 16.859375 -15.660156 18.359375 -14.015625 Z M 13.71875 -5.296875 C 14.40625 -5.992188 14.75 -6.894531 14.75 -8 C 14.75 -9.101562 14.390625 -10.007812 13.671875 -10.71875 C 12.953125 -11.425781 12.0625 -11.78125 11 -11.78125 C 9.957031 -11.78125 9.078125 -11.425781 8.359375 -10.71875 C 7.640625 -10.007812 7.28125 -9.101562 7.28125 -8 C 7.28125 -6.914062 7.628906 -6.019531 8.328125 -5.3125 C 9.023438 -4.601562 9.914062 -4.25 11 -4.25 C 12.125 -4.25 13.03125 -4.597656 13.71875 -5.296875 Z M 13.71875 -5.296875 "/></g></g></g><g fill="#ffffff" fill-opacity="1"><g transform="translate(94.189148, 28.19705)"><g><path d="M 18.078125 -7.25 L 6.46875 -7.25 C 6.46875 -6.125 6.832031 -5.289062 7.5625 -4.75 C 8.289062 -4.207031 9.082031 -3.9375 9.9375 -3.9375 C 10.832031 -3.9375 11.539062 -4.054688 12.0625 -4.296875 C 12.582031 -4.535156 13.175781 -5.007812 13.84375 -5.71875 L 17.828125 -3.71875 C 16.171875 -0.925781 13.40625 0.46875 9.53125 0.46875 C 7.113281 0.46875 5.039062 -0.359375 3.3125 -2.015625 C 1.582031 -3.671875 0.71875 -5.664062 0.71875 -8 C 0.71875 -10.332031 1.582031 -12.328125 3.3125 -13.984375 C 5.039062 -15.648438 7.113281 -16.484375 9.53125 -16.484375 C 12.070312 -16.484375 14.132812 -15.75 15.71875 -14.28125 C 17.3125 -12.820312 18.109375 -10.726562 18.109375 -8 C 18.109375 -7.625 18.097656 -7.375 18.078125 -7.25 Z M 6.625 -10.3125 L 12.71875 -10.3125 C 12.59375 -11.144531 12.265625 -11.785156 11.734375 -12.234375 C 11.203125 -12.679688 10.519531 -12.90625 9.6875 -12.90625 C 8.769531 -12.90625 8.039062 -12.664062 7.5 -12.1875 C 6.957031 -11.707031 6.664062 -11.082031 6.625 -10.3125 Z M 6.625 -10.3125 "/></g></g></g><g fill="#ffffff" fill-opacity="1"><g transform="translate(113.020503, 28.19705)"><g><path d="M 18.078125 -7.25 L 6.46875 -7.25 C 6.46875 -6.125 6.832031 -5.289062 7.5625 -4.75 C 8.289062 -4.207031 9.082031 -3.9375 9.9375 -3.9375 C 10.832031 -3.9375 11.539062 -4.054688 12.0625 -4.296875 C 12.582031 -4.535156 13.175781 -5.007812 13.84375 -5.71875 L 17.828125 -3.71875 C 16.171875 -0.925781 13.40625 0.46875 9.53125 0.46875 C 7.113281 0.46875 5.039062 -0.359375 3.3125 -2.015625 C 1.582031 -3.671875 0.71875 -5.664062 0.71875 -8 C 0.71875 -10.332031 1.582031 -12.328125 3.3125 -13.984375 C 5.039062 -15.648438 7.113281 -16.484375 9.53125 -16.484375 C 12.070312 -16.484375 14.132812 -15.75 15.71875 -14.28125 C 17.3125 -12.820312 18.109375 -10.726562 18.109375 -8 C 18.109375 -7.625 18.097656 -7.375 18.078125 -7.25 Z M 6.625 -10.3125 L 12.71875 -10.3125 C 12.59375 -11.144531 12.265625 -11.785156 11.734375 -12.234375 C 11.203125 -12.679688 10.519531 -12.90625 9.6875 -12.90625 C 8.769531 -12.90625 8.039062 -12.664062 7.5 -12.1875 C 6.957031 -11.707031 6.664062 -11.082031 6.625 -10.3125 Z M 6.625 -10.3125 "/></g></g></g><g fill="#ffffff" fill-opacity="1"><g transform="translate(131.851851, 28.19705)"><g><path d="M 5.4375 -6.6875 C 6.4375 -6.6875 7.285156 -6.335938 7.984375 -5.640625 C 8.679688 -4.941406 9.03125 -4.09375 9.03125 -3.09375 C 9.03125 -2.113281 8.679688 -1.273438 7.984375 -0.578125 C 7.285156 0.117188 6.4375 0.46875 5.4375 0.46875 C 4.457031 0.46875 3.617188 0.117188 2.921875 -0.578125 C 2.222656 -1.273438 1.875 -2.113281 1.875 -3.09375 C 1.875 -4.09375 2.222656 -4.941406 2.921875 -5.640625 C 3.617188 -6.335938 4.457031 -6.6875 5.4375 -6.6875 Z M 5.4375 -6.6875 "/></g></g></g></g></g></svg>